<mxfile host="app.diagrams.net" modified="2023-07-04T19:03:08.810Z" agent="Mozilla/5.0 (Windows NT 10.0; Win64; x64) AppleWebKit/537.36 (KHTML, like Gecko) Chrome/114.0.0.0 Safari/537.36" etag="MI1NEbzi7TjQc5lFMm8E" version="21.5.2" type="github">
  <diagram name="Page-1" id="MNY4ZUC4jNI8N8jXZhxF">
    <mxGraphModel dx="944" dy="1564" grid="1" gridSize="10" guides="1" tooltips="1" connect="1" arrows="1" fold="1" page="1" pageScale="1" pageWidth="850" pageHeight="1100" math="0" shadow="0">
      <root>
        <mxCell id="0" />
        <mxCell id="1" parent="0" />
        <mxCell id="IR04hSlnyKXBEtbK4tzE-7" style="edgeStyle=orthogonalEdgeStyle;rounded=0;orthogonalLoop=1;jettySize=auto;html=1;entryX=0.5;entryY=0;entryDx=0;entryDy=0;" edge="1" parent="1" source="IR04hSlnyKXBEtbK4tzE-1" target="IR04hSlnyKXBEtbK4tzE-2">
          <mxGeometry relative="1" as="geometry" />
        </mxCell>
        <mxCell id="IR04hSlnyKXBEtbK4tzE-8" style="edgeStyle=orthogonalEdgeStyle;rounded=0;orthogonalLoop=1;jettySize=auto;html=1;entryX=0.25;entryY=0;entryDx=0;entryDy=0;" edge="1" parent="1" source="IR04hSlnyKXBEtbK4tzE-1" target="IR04hSlnyKXBEtbK4tzE-3">
          <mxGeometry relative="1" as="geometry" />
        </mxCell>
        <mxCell id="IR04hSlnyKXBEtbK4tzE-9" style="edgeStyle=orthogonalEdgeStyle;rounded=0;orthogonalLoop=1;jettySize=auto;html=1;entryX=0.5;entryY=0;entryDx=0;entryDy=0;" edge="1" parent="1" source="IR04hSlnyKXBEtbK4tzE-1" target="IR04hSlnyKXBEtbK4tzE-4">
          <mxGeometry relative="1" as="geometry" />
        </mxCell>
        <mxCell id="IR04hSlnyKXBEtbK4tzE-10" style="edgeStyle=orthogonalEdgeStyle;rounded=0;orthogonalLoop=1;jettySize=auto;html=1;entryX=0.5;entryY=0;entryDx=0;entryDy=0;" edge="1" parent="1" source="IR04hSlnyKXBEtbK4tzE-1" target="IR04hSlnyKXBEtbK4tzE-5">
          <mxGeometry relative="1" as="geometry" />
        </mxCell>
        <mxCell id="IR04hSlnyKXBEtbK4tzE-12" style="edgeStyle=orthogonalEdgeStyle;rounded=0;orthogonalLoop=1;jettySize=auto;html=1;entryX=0.5;entryY=0;entryDx=0;entryDy=0;" edge="1" parent="1" source="IR04hSlnyKXBEtbK4tzE-1" target="IR04hSlnyKXBEtbK4tzE-11">
          <mxGeometry relative="1" as="geometry" />
        </mxCell>
        <mxCell id="IR04hSlnyKXBEtbK4tzE-1" value="Lanchonete" style="rounded=0;whiteSpace=wrap;html=1;" vertex="1" parent="1">
          <mxGeometry x="360" y="70" width="120" height="60" as="geometry" />
        </mxCell>
        <mxCell id="IR04hSlnyKXBEtbK4tzE-2" value="Cliente" style="rounded=0;whiteSpace=wrap;html=1;" vertex="1" parent="1">
          <mxGeometry x="40" y="200" width="120" height="60" as="geometry" />
        </mxCell>
        <mxCell id="IR04hSlnyKXBEtbK4tzE-3" value="Atendente" style="rounded=0;whiteSpace=wrap;html=1;" vertex="1" parent="1">
          <mxGeometry x="200" y="200" width="120" height="60" as="geometry" />
        </mxCell>
        <mxCell id="IR04hSlnyKXBEtbK4tzE-4" value="Produto" style="rounded=0;whiteSpace=wrap;html=1;" vertex="1" parent="1">
          <mxGeometry x="360" y="200" width="120" height="60" as="geometry" />
        </mxCell>
        <mxCell id="IR04hSlnyKXBEtbK4tzE-5" value="Categoria" style="rounded=0;whiteSpace=wrap;html=1;" vertex="1" parent="1">
          <mxGeometry x="520" y="200" width="120" height="60" as="geometry" />
        </mxCell>
        <mxCell id="IR04hSlnyKXBEtbK4tzE-11" value="Pagamento" style="rounded=0;whiteSpace=wrap;html=1;" vertex="1" parent="1">
          <mxGeometry x="680" y="200" width="120" height="60" as="geometry" />
        </mxCell>
      </root>
    </mxGraphModel>
  </diagram>
</mxfile>
